# xmcd CD database file
#
# Track frame offsets:
#	150
#	20322
#	48162
#	70532
#	85805
#	107195
#	125412
#	147577
#	171667
#	196565
#	216765
#	246017
#
# Disc length: 3530 seconds
#
# Revision: 0
# Processed by: cddbd v1.5PL3 Copyright (c) Steve Scherf et al.
# Submitted via: CDex 1.51
#
DISCID=a30dc80c
DTITLE=Varios - Las Estrellas del Caribe
DYEAR=1999
DGENRE=Salsa
TTITLE0=Sin fronteras-Qué bonito
TTITLE1=Manolito y su trabuco-Maria Luisa
TTITLE2=Caracar Latin Brother's- Una fan enamorada
TTITLE3=Livam-Llueve dentro
TTITLE4=Edgar Joe-Hasta el sol de hoy
TTITLE5=Mayelín-A mi me sofoca
TTITLE6=Jossie Esteba,Patrulla 15-LAs Mujeres
TTITLE7=La Lupe-Besito pa ti
TTITLE8=Celia Cruzy Fania A.Stars-Bamboleo
TTITLE9=El Gyauabero-Mañana me voy pa'Sinabicu
TTITLE10=Rubén Blades-Sin tu cariño
TTITLE11=Luis Deseda-La sombra de tu amor
EXTD=YEAR: 1999
EXTT0=
EXTT1=
EXTT2=
EXTT3=
EXTT4=
EXTT5=
EXTT6=
EXTT7=
EXTT8=
EXTT9=
EXTT10=
EXTT11=
PLAYORDER=
